<?xml version="1.0" encoding="UTF-8"?>
<svg version="1.1" xmlns="http://www.w3.org/2000/svg" width="1920" height="1080">
<path d="M0 0 C632.94 0 1265.88 0 1918 0 C1918 355.74 1918 711.48 1918 1078 C1285.06 1078 652.12 1078 0 1078 C0 722.26 0 366.52 0 0 Z " fill="#000000" transform="translate(2,0)"/>
<path d="M0 0 C0.33 1.32 0.66 2.64 1 4 C20.8 4 40.6 4 61 4 C61.33 4.66 61.66 5.32 62 6 C40.66880455 7.21397047 19.35692411 7.1029822 -2 7 C-2.33 10.3 -2.66 13.6 -3 17 C-3.66 17 -4.32 17 -5 17 C-5.125 9.25 -5.125 9.25 -4 7 C-12.58 7 -21.16 7 -30 7 C-30.33 7.99 -30.66 8.98 -31 10 C-31.33 9.01 -31.66 8.02 -32 7 C-33.2881813 7.15919922 -34.57636261 7.31839844 -35.90357971 7.48242188 C-40.78919091 8.02283029 -45.63073726 8.20204459 -50.54272461 8.28125 C-51.91505973 8.30835005 -51.91505973 8.30835005 -53.31511879 8.33599758 C-56.34413231 8.39472018 -59.3732174 8.44744603 -62.40234375 8.5 C-64.56518609 8.54039469 -66.72802271 8.58109703 -68.89085388 8.62208557 C-74.70082381 8.73093755 -80.51088098 8.83417068 -86.32097626 8.93608475 C-89.94173174 9.00007479 -93.56245226 9.06576959 -97.1831665 9.13204956 C-133.1326932 9.78962844 -169.08303649 10.34666829 -205.03718662 10.67676544 C-207.4284732 10.6997793 -209.81969733 10.72645397 -212.2109375 10.75390625 C-213.50506845 10.76834558 -214.79919939 10.7827849 -216.13254642 10.79766178 C-225.80539392 10.91352925 -235.47147901 11.1306993 -245.14064419 11.41738415 C-263.37746574 11.95275292 -281.6123938 12.25669403 -299.85540318 12.47232056 C-303.84759591 12.52026568 -307.83974217 12.57182195 -311.83189392 12.62304688 C-322.75685129 12.76263225 -333.68187057 12.89706998 -344.60689545 13.03125 C-354.65885085 13.1547478 -364.7107872 13.2794861 -374.76267332 13.40851593 C-378.69017889 13.45880599 -382.6176904 13.50806128 -386.54524422 13.55444336 C-403.15428042 13.75086509 -419.75711553 14.03328434 -436.36108398 14.49609375 C-437.10709244 14.5167691 -437.85310089 14.53744446 -438.62171566 14.55874634 C-450.75444153 14.89907973 -462.87858017 15.37256968 -475 16 C-475 15.01 -475 14.02 -475 13 C-448.27 12.34 -421.54 11.68 -394 11 C-394 10.34 -394 9.68 -394 9 C-381.13 9 -368.26 9 -355 9 C-355 9.33 -355 9.66 -355 10 C-366.88 10.33 -378.76 10.66 -391 11 C-364.06172605 11.10907819 -337.1604862 10.89402556 -310.23114014 10.2020874 C-300.59980532 9.955198 -290.96794134 9.73076874 -281.3359375 9.51171875 C-280.347822 9.48920296 -279.3597065 9.46668716 -278.3416481 9.44348907 C-254.6883541 8.91023651 -231.03278289 8.62174462 -207.375 8.375 C-206.39681808 8.36475422 -205.41863617 8.35450844 -204.41081238 8.34395218 C-192.60728474 8.22085277 -180.80369584 8.10575349 -169 8 C-173.29 7.67 -177.58 7.34 -182 7 C-182 6.67 -182 6.34 -182 6 C-155.6 6 -129.2 6 -102 6 C-102 5.67 -102 5.34 -102 5 C-76.92 5 -51.84 5 -26 5 C-25.67 4.34 -25.34 3.68 -25 3 C-24.67 3.66 -24.34 4.32 -24 5 C-21.36 5 -18.72 5 -16 5 C-16 4.67 -16 4.34 -16 4 C-10.72 4 -5.44 4 0 4 C0 2.68 0 1.36 0 0 Z " fill="#1D3925" transform="translate(574,871)"/>
<path d="M0 0 C0 0.33 0 0.66 0 1 C-13.365 1.495 -13.365 1.495 -27 2 C-24.03 2.33 -21.06 2.66 -18 3 C-18 3.33 -18 3.66 -18 4 C-29.88 4 -41.76 4 -54 4 C-54 4.33 -54 4.66 -54 5 C-66.21 5 -78.42 5 -91 5 C-91 5.33 -91 5.66 -91 6 C-103.54 6 -116.08 6 -129 6 C-129 6.33 -129 6.66 -129 7 C-140.88 7 -152.76 7 -165 7 C-165 7.33 -165 7.66 -165 8 C-188.15976175 8.65758296 -211.31967048 9.30975518 -234.47975826 9.95575714 C-245.23714706 10.25593358 -255.99448389 10.55777787 -266.75170898 10.86376953 C-276.14473733 11.13095184 -285.53785337 11.39477992 -294.93108183 11.65483522 C-299.88920814 11.79221342 -304.84728035 11.93109707 -309.80525017 12.07402039 C-333.21065703 12.74753188 -356.58420186 13.17321468 -380 13 C-380 12.67 -380 12.34 -380 12 C-379.30035126 11.97938507 -378.60070251 11.95877014 -377.87985229 11.93753052 C-371.03636045 11.73530302 -364.19297183 11.52982318 -357.3496685 11.32132149 C-353.83781227 11.21442024 -350.32593492 11.10847011 -346.81396484 11.00537109 C-330.57266582 10.52784983 -314.34046176 9.94468511 -298.10875261 9.20895171 C-271.6006909 8.01421379 -245.08486552 7.08195857 -218.56542563 6.18177938 C-214.76142949 6.0525545 -210.9574533 5.92275625 -207.15348244 5.79278946 C-196.51199275 5.42928216 -185.87048332 5.06637951 -175.22886944 4.7065258 C-174.55846268 4.68385515 -173.88805592 4.66118451 -173.1973338 4.63782687 C-171.83999751 4.59192992 -170.4826612 4.54603352 -169.12532487 4.50013767 C-168.45208534 4.47737251 -167.77884581 4.45460736 -167.08520508 4.43115234 C-166.0740455 4.39696147 -166.0740455 4.39696147 -165.04245845 4.36207987 C-154.08413342 3.99140241 -143.1259955 3.61546856 -132.16792717 3.23728572 C-120.77705926 2.84423813 -109.3860497 2.45559076 -97.99489528 2.07092297 C-91.65467692 1.8567375 -85.31452753 1.64088435 -78.97452354 1.42043686 C-52.64297637 0.50642838 -26.34977529 -0.32201974 0 0 Z " fill="#213F2A" transform="translate(1201,869)"/>
<path d="M0 0 C12.87 0 25.74 0 39 0 C39 0.33 39 0.66 39 1 C27.12 1.33 15.24 1.66 3 2 C42.6 2 82.2 2 123 2 C123 2.33 123 2.66 123 3 C122.28073963 3.00938567 121.56147926 3.01877134 120.82042313 3.02844143 C103.13261785 3.25943417 85.4448543 3.49340368 67.75712967 3.73049068 C59.20268766 3.84508658 50.64823543 3.95875751 42.09375 4.07006836 C34.61780528 4.1673478 27.14188866 4.26654833 19.66599727 4.36784559 C15.72564293 4.42117529 11.78528245 4.47368681 7.84488678 4.5238781 C-8.90277366 4.73786558 -25.64496441 5.03220523 -42.38769531 5.49829102 C-43.13293882 5.51890653 -43.87818233 5.53952205 -44.64600897 5.56076229 C-56.77067238 5.90005004 -68.88665517 6.37298766 -81 7 C-81 6.01 -81 5.02 -81 4 C-54.27 3.34 -27.54 2.68 0 2 C0 1.34 0 0.68 0 0 Z " fill="#23442D" transform="translate(180,880)"/>
<path d="M0 0 C0 0.33 0 0.66 0 1 C-11.385 1.495 -11.385 1.495 -23 2 C-23 2.33 -23 2.66 -23 3 C-40.8140133 3.52744113 -58.62818394 4.0492075 -76.44254971 4.56460571 C-84.71804419 4.80415498 -92.99348156 5.04541432 -101.26879883 5.29101562 C-108.49957355 5.50561149 -115.73044218 5.71667735 -122.96143299 5.92386818 C-126.77379322 6.03321816 -130.58609257 6.14408666 -134.398283 6.25921631 C-155.27187134 6.88814462 -176.11671533 7.11651694 -197 7 C-197 6.67 -197 6.34 -197 6 C-196.30035126 5.97938507 -195.60070251 5.95877014 -194.87985229 5.93753052 C-152.27527884 4.70091845 -152.27527884 4.70091845 -109.6875 3 C-93.206631 2.24821213 -76.72398003 1.58767535 -60.23599243 1.01074219 C-57.72077356 0.92231381 -55.20561225 0.8322278 -52.69052124 0.74023438 C-35.11866719 0.10044945 -17.58264629 -0.11516078 0 0 Z " fill="#23442D" transform="translate(1018,875)"/>
<path d="M0 0 C0.33 0.66 0.66 1.32 1 2 C82.51 2 164.02 2 248 2 C248 2.33 248 2.66 248 3 C166.49 3 84.98 3 1 3 C0.67 3.99 0.34 4.98 0 6 C0 5.01 0 4.02 0 3 C-7.59 3 -15.18 3 -23 3 C-23 2.67 -23 2.34 -23 2 C-15.41 2 -7.82 2 0 2 C0 1.34 0 0.68 0 0 Z " fill="#335E40" transform="translate(580,819)"/>
<path d="M0 0 C0.495 1.98 0.495 1.98 1 4 C20.8 4 40.6 4 61 4 C61.495 4.99 61.495 4.99 62 6 C40.66880455 7.21397047 19.35692411 7.1029822 -2 7 C-2.33 10.3 -2.66 13.6 -3 17 C-3.66 17 -4.32 17 -5 17 C-5.125 9.25 -5.125 9.25 -4 7 C-12.58 7 -21.16 7 -30 7 C-30.33 7.99 -30.66 8.98 -31 10 C-31.33 9.01 -31.66 8.02 -32 7 C-34.97 7 -37.94 7 -41 7 C-41 6.67 -41 6.34 -41 6 C-28.625 5.505 -28.625 5.505 -16 5 C-16 4.67 -16 4.34 -16 4 C-10.72 4 -5.44 4 0 4 C0 2.68 0 1.36 0 0 Z " fill="#23432C" transform="translate(574,871)"/>
<path d="M0 0 C-3.05662333 2.45737444 -6.16320241 4.1686323 -9.69921875 5.85546875 C-10.81876953 6.39220215 -11.93832031 6.92893555 -13.09179688 7.48193359 C-14.27837891 8.04477051 -15.46496094 8.60760742 -16.6875 9.1875 C-17.9083077 9.76882341 -19.12901037 10.35036742 -20.34960938 10.93212891 C-22.77296101 12.0865321 -25.19745718 13.23842576 -27.62255859 14.38916016 C-30.57639576 15.79796582 -33.51924677 17.22608742 -36.45703125 18.66796875 C-37.97135301 19.40364822 -39.48567582 20.13932552 -41 20.875 C-41.68022217 21.21426514 -42.36044434 21.55353027 -43.0612793 21.90307617 C-47.66043979 24.11318674 -47.66043979 24.11318674 -51 23 C-44.22601051 19.5497685 -37.44432324 16.11505328 -30.65698242 12.69116211 C-28.34754867 11.52385068 -26.03992029 10.35296046 -23.73413086 9.1784668 C-20.42506239 7.49370789 -17.10977625 5.821804 -13.79296875 4.15234375 C-12.24128242 3.35714577 -12.24128242 3.35714577 -10.6582489 2.54588318 C-9.6974794 2.0653096 -8.7367099 1.58473602 -7.74682617 1.08959961 C-6.90077316 0.66102158 -6.05472015 0.23244354 -5.18302917 -0.2091217 C-3 -1 -3 -1 0 0 Z " fill="#2A4F35" transform="translate(491,982)"/>
<path d="M0 0 C17.16 0 34.32 0 52 0 C52 0.33 52 0.66 52 1 C50.35 1.33 48.7 1.66 47 2 C47 2.33 47 2.66 47 3 C35.12 3 23.24 3 11 3 C11 2.67 11 2.34 11 2 C7.37 1.67 3.74 1.34 0 1 C0 0.67 0 0.34 0 0 Z " fill="#102416" transform="translate(1248,865)"/>
<path d="M0 0 C0.33 0.66 0.66 1.32 1 2 C22.78 2 44.56 2 67 2 C67 2.33 67 2.66 67 3 C45.22 3 23.44 3 1 3 C0.67 3.99 0.34 4.98 0 6 C0 5.01 0 4.02 0 3 C-7.59 3 -15.18 3 -23 3 C-23 2.67 -23 2.34 -23 2 C-15.41 2 -7.82 2 0 2 C0 1.34 0 0.68 0 0 Z " fill="#2C5237" transform="translate(580,819)"/>
<path d="M0 0 C17.16 0 34.32 0 52 0 C52 0.33 52 0.66 52 1 C34.84 1.66 17.68 2.32 0 3 C0 2.01 0 1.02 0 0 Z " fill="#284B32" transform="translate(99,884)"/>
<path d="M0 0 C0 0.33 0 0.66 0 1 C-7.59 1.33 -15.18 1.66 -23 2 C-23 2.33 -23 2.66 -23 3 C-33.05598201 3.10055982 -42.98707052 3.09945892 -53 2 C-53 1.67 -53 1.34 -53 1 C-35.32354939 0.12317343 -17.69683879 -0.12920302 0 0 Z " fill="#274931" transform="translate(1018,875)"/>
<path d="M0 0 C0.70189453 0.09990234 1.40378906 0.19980469 2.12695312 0.30273438 C3.85636527 0.54979325 5.5845627 0.80532852 7.3125 1.0625 C7.3125 1.3925 7.3125 1.7225 7.3125 2.0625 C1.51042216 2.25456145 -4.29185291 2.43331576 -10.09472656 2.59960938 C-12.06977398 2.65810041 -14.04471618 2.72026216 -16.01953125 2.78613281 C-18.85397181 2.880045 -21.68852553 2.96085955 -24.5234375 3.0390625 C-25.40993988 3.07125885 -26.29644226 3.1034552 -27.20980835 3.1366272 C-29.36852831 3.18968594 -31.52936721 3.13564362 -33.6875 3.0625 C-34.3475 2.4025 -35.0075 1.7425 -35.6875 1.0625 C-34.94588623 1.03744385 -34.20427246 1.0123877 -33.44018555 0.98657227 C-30.08494672 0.87063868 -26.72999056 0.74790015 -23.375 0.625 C-21.62413086 0.56602539 -21.62413086 0.56602539 -19.83789062 0.50585938 C-18.71962891 0.46396484 -17.60136719 0.42207031 -16.44921875 0.37890625 C-15.41756592 0.34224854 -14.38591309 0.30559082 -13.32299805 0.26782227 C-3.37428971 -0.50724617 -3.37428971 -0.50724617 0 0 Z " fill="#152C1B" transform="translate(1028.6875,874.9375)"/>
<path d="M0 0 C0.66 0.33 1.32 0.66 2 1 C-0.22886871 3.70857866 -2.45814945 6.41681792 -4.6875 9.125 C-5.31333984 9.88554688 -5.93917969 10.64609375 -6.58398438 11.4296875 C-10.04278657 15.63095509 -13.51095033 19.82381436 -17 24 C-17.66 23.34 -18.32 22.68 -19 22 C-18.6376123 21.58226318 -18.27522461 21.16452637 -17.90185547 20.73413086 C-16.22602694 18.80210265 -14.55051215 16.86980259 -12.875 14.9375 C-12.30523437 14.28072266 -11.73546875 13.62394531 -11.1484375 12.94726562 C-7.41754013 8.64401468 -3.70280887 4.32744684 0 0 Z " fill="#162C1C" transform="translate(214,526)"/>
<path d="M0 0 C0.33 0 0.66 0 1 0 C1.19585021 7.62999776 0.42978288 14.99440238 -0.5 22.5625 C-0.64308594 23.76197266 -0.78617188 24.96144531 -0.93359375 26.19726562 C-1.28437174 29.13210815 -1.63994859 32.06628323 -2 35 C-2.33 35 -2.66 35 -3 35 C-4.3384395 27.1293023 -3.40116298 20.26586247 -2.0625 12.4375 C-1.86720703 11.23802734 -1.67191406 10.03855469 -1.47070312 8.80273438 C-0.99108929 5.86656189 -0.50063383 2.93264855 0 0 Z " fill="#2A4F35" transform="translate(648,223)"/>
<path d="M0 0 C0.99033234 0.06871056 0.99033234 0.06871056 2.00067139 0.1388092 C4.09987677 0.28582069 6.19832371 0.44161136 8.296875 0.59765625 C9.72391715 0.69914847 11.15100027 0.80006637 12.578125 0.90039062 C16.0682076 1.14699449 19.55766451 1.4014734 23.046875 1.66015625 C23.046875 1.99015625 23.046875 2.32015625 23.046875 2.66015625 C11.826875 2.66015625 0.606875 2.66015625 -10.953125 2.66015625 C-10.953125 2.00015625 -10.953125 1.34015625 -10.953125 0.66015625 C-7.22307199 -0.58183738 -3.89025167 -0.28022999 0 0 Z " fill="#193220" transform="translate(1086.953125,872.33984375)"/>
<path d="M0 0 C0 3.96130371 -1.34877125 4.82914401 -4 7.6875 C-4.7425 8.49574219 -5.485 9.30398438 -6.25 10.13671875 C-6.8275 10.75160156 -7.405 11.36648438 -8 12 C-8.66 11.34 -9.32 10.68 -10 10 C-8.90453883 8.51437458 -7.79831177 7.03668291 -6.6875 5.5625 C-6.07261719 4.73878906 -5.45773438 3.91507813 -4.82421875 3.06640625 C-3 1 -3 1 0 0 Z " fill="#132819" transform="translate(106,657)"/>
<path d="M0 0 C0 3.96130371 -1.34877125 4.82914401 -4 7.6875 C-4.7425 8.49574219 -5.485 9.30398438 -6.25 10.13671875 C-6.8275 10.75160156 -7.405 11.36648438 -8 12 C-8.66 11.34 -9.32 10.68 -10 10 C-8.7121669 8.51749445 -7.41960936 7.03909182 -6.125 5.5625 C-5.40570313 4.73878906 -4.68640625 3.91507813 -3.9453125 3.06640625 C-2 1 -2 1 0 0 Z " fill="#152C1C" transform="translate(160,592)"/>
<path d="M0 0 C0 3.77910478 -0.99703962 4.46106101 -3.5 7.1875 C-4.1496875 7.90292969 -4.799375 8.61835937 -5.46875 9.35546875 C-5.9740625 9.89816406 -6.479375 10.44085937 -7 11 C-7.66 10.34 -8.32 9.68 -9 9 C-7.87895467 7.68412059 -6.75303035 6.37239647 -5.625 5.0625 C-4.99851562 4.33160156 -4.37203125 3.60070312 -3.7265625 2.84765625 C-2 1 -2 1 0 0 Z " fill="#132819" transform="translate(120,640)"/>
<path d="M0 0 C0.33 0 0.66 0 1 0 C1.08097324 2.27024968 1.13917704 4.54132075 1.1875 6.8125 C1.22230469 8.07707031 1.25710938 9.34164062 1.29296875 10.64453125 C1 14 1 14 -0.51171875 15.94921875 C-1.00285156 16.29597656 -1.49398438 16.64273438 -2 17 C-1.85899143 14.72886197 -1.71203245 12.45809275 -1.5625 10.1875 C-1.48128906 8.92292969 -1.40007812 7.65835938 -1.31640625 6.35546875 C-1 3 -1 3 0 0 Z " fill="#25472F" transform="translate(362,680)"/>
<path d="M0 0 C0.89203125 0.10183594 1.7840625 0.20367188 2.703125 0.30859375 C3.37859375 0.39238281 4.0540625 0.47617187 4.75 0.5625 C4.75 0.8925 4.75 1.2225 4.75 1.5625 C0.13 1.8925 -4.49 2.2225 -9.25 2.5625 C-9.25 1.9025 -9.25 1.2425 -9.25 0.5625 C-5.98086376 -0.46865279 -3.38958652 -0.4013984 0 0 Z " fill="#112516" transform="translate(1085.25,872.4375)"/>
<path d="M0 0 C0.33 0 0.66 0 1 0 C1.66 5.28 2.32 10.56 3 16 C2.34 16 1.68 16 1 16 C0.855625 14.88625 0.71125 13.7725 0.5625 12.625 C0.21627965 9.17857953 0.21627965 9.17857953 -1 7 C-0.71758117 4.6599583 -0.38749213 2.32495277 0 0 Z " fill="#24442D" transform="translate(171,571)"/>
<path d="M0 0 C-2.93828597 2.50298434 -5.17902761 3.46930939 -9 4 C-9 3.34 -9 2.68 -9 2 C-3.375 -1.125 -3.375 -1.125 0 0 Z " fill="#335E40" transform="translate(491,982)"/>
<path d="M0 0 C2 2 2 2 2.125 5.625 C2.08375 6.73875 2.0425 7.8525 2 9 C1.34 8.01 0.68 7.02 0 6 C-0.66 6 -1.32 6 -2 6 C-1.34 4.02 -0.68 2.04 0 0 Z " fill="#172E1E" transform="translate(378,656)"/>
<path d="M0 0 C2 3 2 3 2 5 C0.35 5.33 -1.3 5.66 -3 6 C-3 3 -3 3 -1.5 1.3125 C-0.7575 0.6628125 -0.7575 0.6628125 0 0 Z " fill="#183120" transform="translate(269,460)"/>
</svg>
